#N canvas 52 23 1280 684 10;
#X obj 195 1339;
#X obj -116 83 cnv 15 200 200 empty empty JAN 20 12 0 14 -57 -262144
0;
#X obj -15 83 cnv 15 100 60 empty empty FEB 20 12 0 14 -64 -262130
0;
#X obj -173 82 tgl 50 0 empty empty empty 17 7 0 10 -232576 -262144
-1 0 1;
#X obj -190 134 s start/stop;
#X obj 87 83 cnv 15 100 60 empty empty MAR 20 12 0 14 -4096 -261682
0;
#X obj -116 144 cnv 15 100 60 empty empty APR 20 12 0 14 -253889 -66577
0;
#X obj -15 144 cnv 15 100 60 empty empty MAY 20 12 0 14 -4033 -66577
0;
#X obj 86 144 cnv 15 100 60 empty empty JUN 20 12 0 14 -260224 -228856
0;
#X obj -115 205 cnv 15 100 60 empty empty JUL 20 12 0 14 -241728 -262144
0;
#X obj -15 205 cnv 15 100 60 empty empty AUG 20 12 0 14 -258052 -262144
0;
#X obj 86 205 cnv 15 100 60 empty empty SEP 20 12 0 14 -168000 -262144
0;
#X obj -116 266 cnv 15 100 60 empty empty OCT 20 12 0 14 -2304 -262144
0;
#X obj -15 266 cnv 15 100 60 empty empty NOV 20 12 0 14 -260289 -262144
0;
#X obj 86 266 cnv 15 100 60 empty empty DEC 20 12 0 14 -208051 -262144
0;
#X text 189 283 sonification of weather data recorded in cambridge
1995 data includes month max temp low temp air frost days rain mm sun
hours;
#N canvas 489 83 669 383 patch 0;
#X obj 238 196 random 11;
#X floatatom 447 212 5 0 0 0 - - -;
#N canvas 178 125 1085 619 Colour 0;
#X obj 97 52 inlet;
#X floatatom 95 110 5 0 0 0 - - -;
#X obj -16 164 sel 0;
#X obj 47 162 sel 1;
#X obj 95 162 sel 2;
#X obj 183 191 sel 3;
#X obj 262 200 sel 4;
#X obj 321 201 sel 5;
#X obj 389 206 sel 6;
#X obj 467 207 sel 7;
#X obj 527 204 sel 8;
#X obj 588 205 sel 9;
#X obj 629 205 sel 10;
#X obj -214 128 sel 11;
#N canvas 274 23 773 636 colour 0;
#X obj -81 626 hsl 128 15 0 1 0 0 empty empty empty -2 -8 0 10 -262144
-1 -1 0 1;
#X obj -120 788 pack f f f;
#X obj -27 697 trigger b f;
#X obj 77 699 trigger b f;
#X obj 63 627 hsl 128 15 0 1 0 0 empty empty empty -2 -8 0 10 -262144
-1 -1 0 1;
#X obj 206 627 hsl 128 15 0 1 0 0 empty empty empty -2 -8 0 10 -262144
-1 -1 0 1;
#X floatatom 224 652 5 0 0 0 - - -;
#X floatatom -83 657 5 0 0 0 - - -;
#X floatatom 75 666 5 0 0 0 - - -;
#X floatatom -85 498 5 0 0 0 - - -;
#X obj -85 530 / 255;
#X floatatom 65 507 5 0 0 0 - - -;
#X obj 65 530 / 255;
#X floatatom 205 507 5 0 0 0 - - -;
#X obj 205 530 / 255;
#X obj 119 242 bng 15 250 50 0 empty empty empty 17 7 0 10 -262144
-1 -1;
#X msg -90 321 1;
#X msg 2 312 1;
#X msg 80 314 1;
#X obj -81 595 line;
#X obj 53 593 line;
#X obj 214 588 line;
#X obj 136 255 inlet;
#X obj 93 800 outlet;
#X msg -85 425 0;
#X msg 0 427 0;
#X msg 125 394 128;
#X obj -82 561 pack 0 50;
#X obj 52 559 pack 0 50;
#X obj 213 554 pack 0 50;
#X connect 0 0 1 0;
#X connect 0 0 7 0;
#X connect 1 0 23 0;
#X connect 2 0 1 0;
#X connect 2 1 1 1;
#X connect 3 0 1 0;
#X connect 3 1 1 2;
#X connect 4 0 2 0;
#X connect 4 0 8 0;
#X connect 5 0 3 0;
#X connect 5 0 6 0;
#X connect 9 0 10 0;
#X connect 10 0 27 0;
#X connect 11 0 12 0;
#X connect 12 0 28 0;
#X connect 13 0 14 0;
#X connect 14 0 29 0;
#X connect 15 0 16 0;
#X connect 15 0 17 0;
#X connect 15 0 18 0;
#X connect 16 0 24 0;
#X connect 17 0 25 0;
#X connect 18 0 26 0;
#X connect 19 0 0 0;
#X connect 20 0 4 0;
#X connect 21 0 5 0;
#X connect 22 0 15 0;
#X connect 24 0 9 0;
#X connect 25 0 11 0;
#X connect 26 0 13 0;
#X connect 27 0 19 0;
#X connect 28 0 20 0;
#X connect 29 0 21 0;
#X restore -63 255 pd colour;
#N canvas 258 175 898 460 gem 0;
#X obj -314 391 gemhead;
#X obj -267 580 colour;
#X obj -366 563 inlet;
#X obj 59 500 inlet;
#X obj -166 467 circle;
#X msg -138 509 20;
#X obj -237 642 rectangle 10 5;
#X connect 0 0 1 0;
#X connect 0 0 4 0;
#X connect 1 0 6 0;
#X connect 2 0 6 0;
#X connect 3 0 1 1;
#X connect 4 0 6 0;
#X connect 5 0 4 1;
#X restore 66 447 pd gem;
#N canvas 479 215 450 300 colour 0;
#X obj -81 626 hsl 128 15 0 1 0 0 empty empty empty -2 -8 0 10 -262144
-1 -1 0 1;
#X obj -120 788 pack f f f;
#X obj -27 697 trigger b f;
#X obj 77 699 trigger b f;
#X obj 63 627 hsl 128 15 0 1 0 0 empty empty empty -2 -8 0 10 -262144
-1 -1 0 1;
#X obj 206 627 hsl 128 15 0 1 0 0 empty empty empty -2 -8 0 10 -262144
-1 -1 0 1;
#X floatatom 224 652 5 0 0 0 - - -;
#X floatatom -83 657 5 0 0 0 - - -;
#X floatatom 75 666 5 0 0 0 - - -;
#X floatatom -85 498 5 0 0 0 - - -;
#X obj -85 530 / 255;
#X floatatom 65 507 5 0 0 0 - - -;
#X obj 65 530 / 255;
#X floatatom 205 507 5 0 0 0 - - -;
#X obj 205 530 / 255;
#X obj 119 242 bng 15 250 50 0 empty empty empty 17 7 0 10 -262144
-1 -1;
#X msg -90 321 1;
#X msg 2 312 1;
#X msg 80 314 1;
#X obj -81 595 line;
#X obj 53 593 line;
#X obj 214 588 line;
#X obj 136 255 inlet;
#X obj 93 800 outlet;
#X msg -85 425 0;
#X msg 0 427 0;
#X msg 125 394 255;
#X obj -82 561 pack 0 50;
#X obj 52 559 pack 0 50;
#X obj 213 554 pack 0 50;
#X connect 0 0 1 0;
#X connect 0 0 7 0;
#X connect 1 0 23 0;
#X connect 2 0 1 0;
#X connect 2 1 1 1;
#X connect 3 0 1 0;
#X connect 3 1 1 2;
#X connect 4 0 2 0;
#X connect 4 0 8 0;
#X connect 5 0 3 0;
#X connect 5 0 6 0;
#X connect 9 0 10 0;
#X connect 10 0 27 0;
#X connect 11 0 12 0;
#X connect 12 0 28 0;
#X connect 13 0 14 0;
#X connect 14 0 29 0;
#X connect 15 0 16 0;
#X connect 15 0 17 0;
#X connect 15 0 18 0;
#X connect 16 0 24 0;
#X connect 17 0 25 0;
#X connect 18 0 26 0;
#X connect 19 0 0 0;
#X connect 20 0 4 0;
#X connect 21 0 5 0;
#X connect 22 0 15 0;
#X connect 24 0 9 0;
#X connect 25 0 11 0;
#X connect 26 0 13 0;
#X connect 27 0 19 0;
#X connect 28 0 20 0;
#X connect 29 0 21 0;
#X restore 3 255 pd colour;
#N canvas 479 215 450 300 colour 0;
#X obj -81 626 hsl 128 15 0 1 0 0 empty empty empty -2 -8 0 10 -262144
-1 -1 0 1;
#X obj -120 788 pack f f f;
#X obj -27 697 trigger b f;
#X obj 77 699 trigger b f;
#X obj 63 627 hsl 128 15 0 1 0 0 empty empty empty -2 -8 0 10 -262144
-1 -1 0 1;
#X obj 206 627 hsl 128 15 0 1 0 0 empty empty empty -2 -8 0 10 -262144
-1 -1 0 1;
#X floatatom 224 652 5 0 0 0 - - -;
#X floatatom -83 657 5 0 0 0 - - -;
#X floatatom 75 666 5 0 0 0 - - -;
#X floatatom -85 498 5 0 0 0 - - -;
#X obj -85 530 / 255;
#X floatatom 65 507 5 0 0 0 - - -;
#X obj 65 530 / 255;
#X floatatom 205 507 5 0 0 0 - - -;
#X obj 205 530 / 255;
#X obj 119 242 bng 15 250 50 0 empty empty empty 17 7 0 10 -262144
-1 -1;
#X msg -90 321 1;
#X msg 2 312 1;
#X msg 80 314 1;
#X obj -81 595 line;
#X obj 53 593 line;
#X obj 214 588 line;
#X obj 136 255 inlet;
#X obj 93 800 outlet;
#X msg -85 425 0;
#X msg 125 394 255;
#X msg 0 427 255;
#X obj -82 561 pack 0 50;
#X obj 52 559 pack 0 50;
#X obj 213 554 pack 0 50;
#X connect 0 0 1 0;
#X connect 0 0 7 0;
#X connect 1 0 23 0;
#X connect 2 0 1 0;
#X connect 2 1 1 1;
#X connect 3 0 1 0;
#X connect 3 1 1 2;
#X connect 4 0 2 0;
#X connect 4 0 8 0;
#X connect 5 0 3 0;
#X connect 5 0 6 0;
#X connect 9 0 10 0;
#X connect 10 0 27 0;
#X connect 11 0 12 0;
#X connect 12 0 28 0;
#X connect 13 0 14 0;
#X connect 14 0 29 0;
#X connect 15 0 16 0;
#X connect 15 0 17 0;
#X connect 15 0 18 0;
#X connect 16 0 24 0;
#X connect 17 0 26 0;
#X connect 18 0 25 0;
#X connect 19 0 0 0;
#X connect 20 0 4 0;
#X connect 21 0 5 0;
#X connect 22 0 15 0;
#X connect 24 0 9 0;
#X connect 25 0 13 0;
#X connect 26 0 11 0;
#X connect 27 0 19 0;
#X connect 28 0 20 0;
#X connect 29 0 21 0;
#X restore 115 264 pd colour;
#N canvas 479 215 450 300 colour 0;
#X obj -81 626 hsl 128 15 0 1 0 0 empty empty empty -2 -8 0 10 -262144
-1 -1 0 1;
#X obj -120 788 pack f f f;
#X obj -27 697 trigger b f;
#X obj 77 699 trigger b f;
#X obj 63 627 hsl 128 15 0 1 0 0 empty empty empty -2 -8 0 10 -262144
-1 -1 0 1;
#X obj 206 627 hsl 128 15 0 1 0 0 empty empty empty -2 -8 0 10 -262144
-1 -1 0 1;
#X floatatom 224 652 5 0 0 0 - - -;
#X floatatom -83 657 5 0 0 0 - - -;
#X floatatom 75 666 5 0 0 0 - - -;
#X floatatom -85 498 5 0 0 0 - - -;
#X obj -85 530 / 255;
#X floatatom 65 507 5 0 0 0 - - -;
#X obj 65 530 / 255;
#X floatatom 205 507 5 0 0 0 - - -;
#X obj 205 530 / 255;
#X obj 119 242 bng 15 250 50 0 empty empty empty 17 7 0 10 -262144
-1 -1;
#X msg -90 321 1;
#X msg 2 312 1;
#X msg 80 314 1;
#X obj -81 595 line;
#X obj 53 593 line;
#X obj 214 588 line;
#X obj 136 255 inlet;
#X obj 93 800 outlet;
#X msg 0 427 255;
#X msg -85 425 250;
#X msg 125 394 0;
#X obj -82 561 pack 0 50;
#X obj 52 559 pack 0 50;
#X obj 213 554 pack 0 50;
#X connect 0 0 1 0;
#X connect 0 0 7 0;
#X connect 1 0 23 0;
#X connect 2 0 1 0;
#X connect 2 1 1 1;
#X connect 3 0 1 0;
#X connect 3 1 1 2;
#X connect 4 0 2 0;
#X connect 4 0 8 0;
#X connect 5 0 3 0;
#X connect 5 0 6 0;
#X connect 9 0 10 0;
#X connect 10 0 27 0;
#X connect 11 0 12 0;
#X connect 12 0 28 0;
#X connect 13 0 14 0;
#X connect 14 0 29 0;
#X connect 15 0 16 0;
#X connect 15 0 17 0;
#X connect 15 0 18 0;
#X connect 16 0 25 0;
#X connect 17 0 24 0;
#X connect 18 0 26 0;
#X connect 19 0 0 0;
#X connect 20 0 4 0;
#X connect 21 0 5 0;
#X connect 22 0 15 0;
#X connect 24 0 11 0;
#X connect 25 0 9 0;
#X connect 26 0 13 0;
#X connect 27 0 19 0;
#X connect 28 0 20 0;
#X connect 29 0 21 0;
#X restore 183 265 pd colour;
#N canvas 479 215 450 300 colour 0;
#X obj -81 626 hsl 128 15 0 1 0 0 empty empty empty -2 -8 0 10 -262144
-1 -1 0 1;
#X obj -120 788 pack f f f;
#X obj -27 697 trigger b f;
#X obj 77 699 trigger b f;
#X obj 63 627 hsl 128 15 0 1 0 0 empty empty empty -2 -8 0 10 -262144
-1 -1 0 1;
#X obj 206 627 hsl 128 15 0 1 0 0 empty empty empty -2 -8 0 10 -262144
-1 -1 0 1;
#X floatatom 224 652 5 0 0 0 - - -;
#X floatatom -83 657 5 0 0 0 - - -;
#X floatatom 75 666 5 0 0 0 - - -;
#X floatatom -85 498 5 0 0 0 - - -;
#X obj -85 530 / 255;
#X floatatom 65 507 5 0 0 0 - - -;
#X floatatom 205 507 5 0 0 0 - - -;
#X obj 119 242 bng 15 250 50 0 empty empty empty 17 7 0 10 -262144
-1 -1;
#X msg -90 321 1;
#X msg 2 312 1;
#X msg 80 314 1;
#X obj -81 595 line;
#X obj 53 593 line;
#X obj 214 588 line;
#X obj 136 255 inlet;
#X obj 93 800 outlet;
#X msg 0 427 255;
#X msg 125 394 0;
#X obj 65 530 / 160;
#X obj 205 530 122;
#X obj -82 561 pack 0 50;
#X obj 52 559 pack 0 50;
#X obj 213 554 pack 0 50;
#X msg -85 425 20;
#X connect 0 0 1 0;
#X connect 0 0 7 0;
#X connect 1 0 21 0;
#X connect 2 0 1 0;
#X connect 2 1 1 1;
#X connect 3 0 1 0;
#X connect 3 1 1 2;
#X connect 4 0 2 0;
#X connect 4 0 8 0;
#X connect 5 0 3 0;
#X connect 5 0 6 0;
#X connect 9 0 10 0;
#X connect 10 0 26 0;
#X connect 11 0 24 0;
#X connect 12 0 25 0;
#X connect 13 0 14 0;
#X connect 13 0 15 0;
#X connect 13 0 16 0;
#X connect 14 0 29 0;
#X connect 15 0 22 0;
#X connect 16 0 23 0;
#X connect 17 0 0 0;
#X connect 18 0 4 0;
#X connect 19 0 5 0;
#X connect 20 0 13 0;
#X connect 22 0 11 0;
#X connect 23 0 12 0;
#X connect 24 0 27 0;
#X connect 25 0 28 0;
#X connect 26 0 17 0;
#X connect 27 0 18 0;
#X connect 28 0 19 0;
#X connect 29 0 9 0;
#X restore 242 284 pd colour;
#N canvas 479 215 450 300 colour 0;
#X obj -81 626 hsl 128 15 0 1 0 0 empty empty empty -2 -8 0 10 -262144
-1 -1 0 1;
#X obj -120 788 pack f f f;
#X obj -27 697 trigger b f;
#X obj 77 699 trigger b f;
#X obj 63 627 hsl 128 15 0 1 0 0 empty empty empty -2 -8 0 10 -262144
-1 -1 0 1;
#X obj 206 627 hsl 128 15 0 1 0 0 empty empty empty -2 -8 0 10 -262144
-1 -1 0 1;
#X floatatom 224 652 5 0 0 0 - - -;
#X floatatom -83 657 5 0 0 0 - - -;
#X floatatom 75 666 5 0 0 0 - - -;
#X floatatom -85 498 5 0 0 0 - - -;
#X obj -85 530 / 255;
#X floatatom 65 507 5 0 0 0 - - -;
#X floatatom 205 507 5 0 0 0 - - -;
#X obj 119 242 bng 15 250 50 0 empty empty empty 17 7 0 10 -262144
-1 -1;
#X msg -90 321 1;
#X msg 2 312 1;
#X msg 80 314 1;
#X obj -81 595 line;
#X obj 53 593 line;
#X obj 214 588 line;
#X obj 136 255 inlet;
#X obj 93 800 outlet;
#X obj 65 530 / 160;
#X obj 205 530 122;
#X msg -85 425 255;
#X msg 0 427 99;
#X msg 125 394 71;
#X obj -82 561 pack 0 50;
#X obj 52 559 pack 0 50;
#X obj 213 554 pack 0 50;
#X connect 0 0 1 0;
#X connect 0 0 7 0;
#X connect 1 0 21 0;
#X connect 2 0 1 0;
#X connect 2 1 1 1;
#X connect 3 0 1 0;
#X connect 3 1 1 2;
#X connect 4 0 2 0;
#X connect 4 0 8 0;
#X connect 5 0 3 0;
#X connect 5 0 6 0;
#X connect 9 0 10 0;
#X connect 10 0 27 0;
#X connect 11 0 22 0;
#X connect 12 0 23 0;
#X connect 13 0 14 0;
#X connect 13 0 15 0;
#X connect 13 0 16 0;
#X connect 14 0 24 0;
#X connect 15 0 25 0;
#X connect 16 0 26 0;
#X connect 17 0 0 0;
#X connect 18 0 4 0;
#X connect 19 0 5 0;
#X connect 20 0 13 0;
#X connect 22 0 28 0;
#X connect 23 0 29 0;
#X connect 24 0 9 0;
#X connect 25 0 11 0;
#X connect 26 0 12 0;
#X connect 27 0 17 0;
#X connect 28 0 18 0;
#X connect 29 0 19 0;
#X restore 298 310 pd colour;
#N canvas 479 215 450 300 colour 0;
#X obj -81 626 hsl 128 15 0 1 0 0 empty empty empty -2 -8 0 10 -262144
-1 -1 0 1;
#X obj -120 788 pack f f f;
#X obj -27 697 trigger b f;
#X obj 77 699 trigger b f;
#X obj 63 627 hsl 128 15 0 1 0 0 empty empty empty -2 -8 0 10 -262144
-1 -1 0 1;
#X obj 206 627 hsl 128 15 0 1 0 0 empty empty empty -2 -8 0 10 -262144
-1 -1 0 1;
#X floatatom 224 652 5 0 0 0 - - -;
#X floatatom -83 657 5 0 0 0 - - -;
#X floatatom 75 666 5 0 0 0 - - -;
#X floatatom -85 498 5 0 0 0 - - -;
#X obj -85 530 / 255;
#X floatatom 65 507 5 0 0 0 - - -;
#X floatatom 205 507 5 0 0 0 - - -;
#X obj 119 242 bng 15 250 50 0 empty empty empty 17 7 0 10 -262144
-1 -1;
#X msg -90 321 1;
#X msg 2 312 1;
#X msg 80 314 1;
#X obj -81 595 line;
#X obj 53 593 line;
#X obj 214 588 line;
#X obj 136 255 inlet;
#X obj 93 800 outlet;
#X obj 65 530 / 160;
#X obj 205 530 122;
#X msg -85 425 209;
#X msg 0 427 21;
#X msg 125 394 21;
#X obj -82 561 pack 0 50;
#X obj 52 559 pack 0 50;
#X obj 213 554 pack 0 50;
#X connect 0 0 1 0;
#X connect 0 0 7 0;
#X connect 1 0 21 0;
#X connect 2 0 1 0;
#X connect 2 1 1 1;
#X connect 3 0 1 0;
#X connect 3 1 1 2;
#X connect 4 0 2 0;
#X connect 4 0 8 0;
#X connect 5 0 3 0;
#X connect 5 0 6 0;
#X connect 9 0 10 0;
#X connect 10 0 27 0;
#X connect 11 0 22 0;
#X connect 12 0 23 0;
#X connect 13 0 14 0;
#X connect 13 0 15 0;
#X connect 13 0 16 0;
#X connect 14 0 24 0;
#X connect 15 0 25 0;
#X connect 16 0 26 0;
#X connect 17 0 0 0;
#X connect 18 0 4 0;
#X connect 19 0 5 0;
#X connect 20 0 13 0;
#X connect 22 0 28 0;
#X connect 23 0 29 0;
#X connect 24 0 9 0;
#X connect 25 0 11 0;
#X connect 26 0 12 0;
#X connect 27 0 17 0;
#X connect 28 0 18 0;
#X connect 29 0 19 0;
#X restore 369 303 pd colour;
#N canvas 479 215 450 300 colour 0;
#X obj -81 626 hsl 128 15 0 1 0 0 empty empty empty -2 -8 0 10 -262144
-1 -1 0 1;
#X obj -120 788 pack f f f;
#X obj -27 697 trigger b f;
#X obj 77 699 trigger b f;
#X obj 63 627 hsl 128 15 0 1 0 0 empty empty empty -2 -8 0 10 -262144
-1 -1 0 1;
#X obj 206 627 hsl 128 15 0 1 0 0 empty empty empty -2 -8 0 10 -262144
-1 -1 0 1;
#X floatatom 224 652 5 0 0 0 - - -;
#X floatatom -83 657 5 0 0 0 - - -;
#X floatatom 75 666 5 0 0 0 - - -;
#X floatatom -85 498 5 0 0 0 - - -;
#X obj -85 530 / 255;
#X floatatom 65 507 5 0 0 0 - - -;
#X floatatom 205 507 5 0 0 0 - - -;
#X obj 119 242 bng 15 250 50 0 empty empty empty 17 7 0 10 -262144
-1 -1;
#X msg -90 321 1;
#X msg 2 312 1;
#X msg 80 314 1;
#X obj -81 595 line;
#X obj 53 593 line;
#X obj 214 588 line;
#X obj 136 255 inlet;
#X obj 93 800 outlet;
#X obj 65 530 / 160;
#X obj 205 530 122;
#X msg -85 425 255;
#X msg 0 427 0;
#X msg 125 394 0;
#X obj -82 561 pack 0 50;
#X obj 52 559 pack 0 50;
#X obj 213 554 pack 0 50;
#X connect 0 0 1 0;
#X connect 0 0 7 0;
#X connect 1 0 21 0;
#X connect 2 0 1 0;
#X connect 2 1 1 1;
#X connect 3 0 1 0;
#X connect 3 1 1 2;
#X connect 4 0 2 0;
#X connect 4 0 8 0;
#X connect 5 0 3 0;
#X connect 5 0 6 0;
#X connect 9 0 10 0;
#X connect 10 0 27 0;
#X connect 11 0 22 0;
#X connect 12 0 23 0;
#X connect 13 0 14 0;
#X connect 13 0 15 0;
#X connect 13 0 16 0;
#X connect 14 0 24 0;
#X connect 15 0 25 0;
#X connect 16 0 26 0;
#X connect 17 0 0 0;
#X connect 18 0 4 0;
#X connect 19 0 5 0;
#X connect 20 0 13 0;
#X connect 22 0 28 0;
#X connect 23 0 29 0;
#X connect 24 0 9 0;
#X connect 25 0 11 0;
#X connect 26 0 12 0;
#X connect 27 0 17 0;
#X connect 28 0 18 0;
#X connect 29 0 19 0;
#X restore 446 303 pd colour;
#N canvas 479 215 450 300 colour 0;
#X obj -81 626 hsl 128 15 0 1 0 0 empty empty empty -2 -8 0 10 -262144
-1 -1 0 1;
#X obj -120 788 pack f f f;
#X obj -27 697 trigger b f;
#X obj 77 699 trigger b f;
#X obj 63 627 hsl 128 15 0 1 0 0 empty empty empty -2 -8 0 10 -262144
-1 -1 0 1;
#X obj 206 627 hsl 128 15 0 1 0 0 empty empty empty -2 -8 0 10 -262144
-1 -1 0 1;
#X floatatom 224 652 5 0 0 0 - - -;
#X floatatom -83 657 5 0 0 0 - - -;
#X floatatom 75 666 5 0 0 0 - - -;
#X floatatom -85 498 5 0 0 0 - - -;
#X obj -85 530 / 255;
#X floatatom 65 507 5 0 0 0 - - -;
#X floatatom 205 507 5 0 0 0 - - -;
#X obj 119 242 bng 15 250 50 0 empty empty empty 17 7 0 10 -262144
-1 -1;
#X msg -90 321 1;
#X msg 2 312 1;
#X msg 80 314 1;
#X obj -81 595 line;
#X obj 53 593 line;
#X obj 214 588 line;
#X obj 136 255 inlet;
#X obj 93 800 outlet;
#X obj 65 530 / 160;
#X obj 205 530 122;
#X msg 0 427 0;
#X msg -85 425 157;
#X msg 125 394 205;
#X obj -82 561 pack 0 50;
#X obj 52 559 pack 0 50;
#X obj 213 554 pack 0 50;
#X connect 0 0 1 0;
#X connect 0 0 7 0;
#X connect 1 0 21 0;
#X connect 2 0 1 0;
#X connect 2 1 1 1;
#X connect 3 0 1 0;
#X connect 3 1 1 2;
#X connect 4 0 2 0;
#X connect 4 0 8 0;
#X connect 5 0 3 0;
#X connect 5 0 6 0;
#X connect 9 0 10 0;
#X connect 10 0 27 0;
#X connect 11 0 22 0;
#X connect 12 0 23 0;
#X connect 13 0 14 0;
#X connect 13 0 15 0;
#X connect 13 0 16 0;
#X connect 14 0 25 0;
#X connect 15 0 24 0;
#X connect 16 0 26 0;
#X connect 17 0 0 0;
#X connect 18 0 4 0;
#X connect 19 0 5 0;
#X connect 20 0 13 0;
#X connect 22 0 28 0;
#X connect 23 0 29 0;
#X connect 24 0 11 0;
#X connect 25 0 9 0;
#X connect 26 0 12 0;
#X connect 27 0 17 0;
#X connect 28 0 18 0;
#X connect 29 0 19 0;
#X restore 534 342 pd colour;
#N canvas 479 215 450 300 colour 0;
#X obj -81 626 hsl 128 15 0 1 0 0 empty empty empty -2 -8 0 10 -262144
-1 -1 0 1;
#X obj -120 788 pack f f f;
#X obj -27 697 trigger b f;
#X obj 77 699 trigger b f;
#X obj 63 627 hsl 128 15 0 1 0 0 empty empty empty -2 -8 0 10 -262144
-1 -1 0 1;
#X obj 206 627 hsl 128 15 0 1 0 0 empty empty empty -2 -8 0 10 -262144
-1 -1 0 1;
#X floatatom 224 652 5 0 0 0 - - -;
#X floatatom -83 657 5 0 0 0 - - -;
#X floatatom 75 666 5 0 0 0 - - -;
#X floatatom -85 498 5 0 0 0 - - -;
#X obj -85 530 / 255;
#X floatatom 65 507 5 0 0 0 - - -;
#X floatatom 205 507 5 0 0 0 - - -;
#X obj 119 242 bng 15 250 50 0 empty empty empty 17 7 0 10 -262144
-1 -1;
#X msg -90 321 1;
#X msg 2 312 1;
#X msg 80 314 1;
#X obj -81 595 line;
#X obj 53 593 line;
#X obj 214 588 line;
#X obj 136 255 inlet;
#X obj 93 800 outlet;
#X obj 65 530 / 160;
#X obj 205 530 122;
#X msg -85 425 71;
#X obj -82 561 pack 0 50;
#X obj 52 559 pack 0 50;
#X obj 213 554 pack 0 50;
#X msg 125 394 200;
#X msg 0 427 100;
#X connect 0 0 1 0;
#X connect 0 0 7 0;
#X connect 1 0 21 0;
#X connect 2 0 1 0;
#X connect 2 1 1 1;
#X connect 3 0 1 0;
#X connect 3 1 1 2;
#X connect 4 0 2 0;
#X connect 4 0 8 0;
#X connect 5 0 3 0;
#X connect 5 0 6 0;
#X connect 9 0 10 0;
#X connect 10 0 25 0;
#X connect 11 0 22 0;
#X connect 12 0 23 0;
#X connect 13 0 14 0;
#X connect 13 0 15 0;
#X connect 13 0 16 0;
#X connect 14 0 24 0;
#X connect 15 0 29 0;
#X connect 16 0 28 0;
#X connect 17 0 0 0;
#X connect 18 0 4 0;
#X connect 19 0 5 0;
#X connect 20 0 13 0;
#X connect 22 0 26 0;
#X connect 23 0 27 0;
#X connect 24 0 9 0;
#X connect 25 0 17 0;
#X connect 26 0 18 0;
#X connect 27 0 19 0;
#X connect 28 0 12 0;
#X connect 29 0 11 0;
#X restore 597 339 pd colour;
#N canvas 479 215 450 300 colour 0;
#X obj -81 626 hsl 128 15 0 1 0 0 empty empty empty -2 -8 0 10 -262144
-1 -1 0 1;
#X obj -120 788 pack f f f;
#X obj -27 697 trigger b f;
#X obj 77 699 trigger b f;
#X obj 63 627 hsl 128 15 0 1 0 0 empty empty empty -2 -8 0 10 -262144
-1 -1 0 1;
#X obj 206 627 hsl 128 15 0 1 0 0 empty empty empty -2 -8 0 10 -262144
-1 -1 0 1;
#X floatatom 224 652 5 0 0 0 - - -;
#X floatatom -83 657 5 0 0 0 - - -;
#X floatatom 75 666 5 0 0 0 - - -;
#X floatatom -85 498 5 0 0 0 - - -;
#X obj -85 530 / 255;
#X floatatom 65 507 5 0 0 0 - - -;
#X floatatom 205 507 5 0 0 0 - - -;
#X obj 119 242 bng 15 250 50 0 empty empty empty 17 7 0 10 -262144
-1 -1;
#X msg -90 321 1;
#X msg 2 312 1;
#X msg 80 314 1;
#X obj -81 595 line;
#X obj 53 593 line;
#X obj 214 588 line;
#X obj 136 255 inlet;
#X obj 93 800 outlet;
#X obj 65 530 / 160;
#X obj 205 530 122;
#X obj -82 561 pack 0 50;
#X obj 52 559 pack 0 50;
#X obj 213 554 pack 0 50;
#X msg -85 425 255;
#X msg 125 394 0;
#X msg 0 427 100;
#X connect 0 0 1 0;
#X connect 0 0 7 0;
#X connect 1 0 21 0;
#X connect 2 0 1 0;
#X connect 2 1 1 1;
#X connect 3 0 1 0;
#X connect 3 1 1 2;
#X connect 4 0 2 0;
#X connect 4 0 8 0;
#X connect 5 0 3 0;
#X connect 5 0 6 0;
#X connect 9 0 10 0;
#X connect 10 0 24 0;
#X connect 11 0 22 0;
#X connect 12 0 23 0;
#X connect 13 0 14 0;
#X connect 13 0 15 0;
#X connect 13 0 16 0;
#X connect 14 0 27 0;
#X connect 15 0 29 0;
#X connect 16 0 28 0;
#X connect 17 0 0 0;
#X connect 18 0 4 0;
#X connect 19 0 5 0;
#X connect 20 0 13 0;
#X connect 22 0 25 0;
#X connect 23 0 26 0;
#X connect 24 0 17 0;
#X connect 25 0 18 0;
#X connect 26 0 19 0;
#X connect 27 0 9 0;
#X connect 28 0 12 0;
#X connect 29 0 11 0;
#X restore 670 336 pd colour;
#N canvas 479 215 450 300 colour 0;
#X obj -81 626 hsl 128 15 0 1 0 0 empty empty empty -2 -8 0 10 -262144
-1 -1 0 1;
#X obj -120 788 pack f f f;
#X obj -27 697 trigger b f;
#X obj 77 699 trigger b f;
#X obj 63 627 hsl 128 15 0 1 0 0 empty empty empty -2 -8 0 10 -262144
-1 -1 0 1;
#X obj 206 627 hsl 128 15 0 1 0 0 empty empty empty -2 -8 0 10 -262144
-1 -1 0 1;
#X floatatom 224 652 5 0 0 0 - - -;
#X floatatom -83 657 5 0 0 0 - - -;
#X floatatom 75 666 5 0 0 0 - - -;
#X floatatom -85 498 5 0 0 0 - - -;
#X obj -85 530 / 255;
#X floatatom 65 507 5 0 0 0 - - -;
#X obj 65 530 / 255;
#X floatatom 205 507 5 0 0 0 - - -;
#X obj 205 530 / 255;
#X obj 119 242 bng 15 250 50 0 empty empty empty 17 7 0 10 -262144
-1 -1;
#X msg -90 321 1;
#X msg 2 312 1;
#X msg 80 314 1;
#X obj -81 595 line;
#X obj 53 593 line;
#X obj 214 588 line;
#X obj 136 255 inlet;
#X obj 93 800 outlet;
#X obj -82 561 pack 0 50;
#X obj 52 559 pack 0 50;
#X obj 213 554 pack 0 50;
#X msg -85 425 211;
#X msg 0 427 211;
#X msg 125 394 211;
#X connect 0 0 1 0;
#X connect 0 0 7 0;
#X connect 1 0 23 0;
#X connect 2 0 1 0;
#X connect 2 1 1 1;
#X connect 3 0 1 0;
#X connect 3 1 1 2;
#X connect 4 0 2 0;
#X connect 4 0 8 0;
#X connect 5 0 3 0;
#X connect 5 0 6 0;
#X connect 9 0 10 0;
#X connect 10 0 24 0;
#X connect 11 0 12 0;
#X connect 12 0 25 0;
#X connect 13 0 14 0;
#X connect 14 0 26 0;
#X connect 15 0 16 0;
#X connect 15 0 17 0;
#X connect 15 0 18 0;
#X connect 16 0 27 0;
#X connect 17 0 28 0;
#X connect 18 0 29 0;
#X connect 19 0 0 0;
#X connect 20 0 4 0;
#X connect 21 0 5 0;
#X connect 22 0 15 0;
#X connect 24 0 19 0;
#X connect 25 0 20 0;
#X connect 26 0 21 0;
#X connect 27 0 9 0;
#X connect 28 0 11 0;
#X connect 29 0 13 0;
#X restore -163 242 pd colour;
#X obj 118 88 line;
#X connect 0 0 27 0;
#X connect 1 0 2 0;
#X connect 1 0 3 0;
#X connect 1 0 4 0;
#X connect 1 0 5 0;
#X connect 1 0 6 0;
#X connect 1 0 7 0;
#X connect 1 0 8 0;
#X connect 1 0 9 0;
#X connect 1 0 10 0;
#X connect 1 0 11 0;
#X connect 1 0 12 0;
#X connect 1 0 13 0;
#X connect 2 0 14 0;
#X connect 3 0 16 0;
#X connect 4 0 17 0;
#X connect 5 0 18 0;
#X connect 6 0 19 0;
#X connect 7 0 20 0;
#X connect 8 0 21 0;
#X connect 9 0 22 0;
#X connect 10 0 23 0;
#X connect 11 0 24 0;
#X connect 12 0 25 0;
#X connect 13 0 26 0;
#X connect 14 0 15 1;
#X connect 16 0 15 1;
#X connect 17 0 15 1;
#X connect 18 0 15 1;
#X connect 19 0 15 1;
#X connect 20 0 15 1;
#X connect 21 0 15 1;
#X connect 22 0 15 1;
#X connect 23 0 15 1;
#X connect 24 0 15 1;
#X connect 25 0 15 1;
#X connect 26 0 15 1;
#X connect 27 0 1 0;
#X restore 336 76 pd Colour;
#N canvas 87 96 719 520 Audio 0;
#X floatatom 267 57 5 0 0 0 - - -;
#X floatatom 307 58 5 0 0 0 - - -;
#X floatatom 336 129 5 0 0 0 - - -;
#X floatatom 377 129 5 0 0 0 - - -;
#X floatatom 260 198 5 0 0 0 - - -;
#X floatatom 343 202 5 0 0 0 - - -;
#X obj 240 228 line~;
#X obj 346 234 line~;
#X obj 240 299 osc~;
#X obj 340 278 osc~;
#X obj 281 288 osc~;
#X obj 380 281 osc~;
#X obj 266 25 inlet;
#X obj 310 31 inlet;
#X obj 380 382 inlet;
#X obj 328 456 output~;
#X obj 438 329 lop~;
#X floatatom 628 194 5 0 0 0 - - -;
#X obj 636 155 inlet;
#X obj 340 161 * 20;
#X obj 377 162 * 20;
#X obj 294 229 * 0.5;
#X obj 393 232 * 0.5;
#X floatatom 623 283 5 0 0 0 - - -;
#X obj 331 408 *~ 0.2;
#X obj 415 433 *~ 0.5;
#X obj 587 343 phasor~;
#X obj 458 242 inlet;
#X obj 438 192 noise~;
#X connect 0 0 2 0;
#X connect 1 0 3 0;
#X connect 2 0 19 0;
#X connect 3 0 20 0;
#X connect 4 0 6 0;
#X connect 4 0 21 0;
#X connect 5 0 7 0;
#X connect 5 0 22 0;
#X connect 6 0 8 0;
#X connect 7 0 9 0;
#X connect 8 0 24 0;
#X connect 9 0 24 0;
#X connect 10 0 24 0;
#X connect 11 0 24 0;
#X connect 12 0 0 0;
#X connect 13 0 1 0;
#X connect 14 0 24 1;
#X connect 16 0 25 0;
#X connect 17 0 23 0;
#X connect 18 0 17 0;
#X connect 19 0 4 0;
#X connect 20 0 5 0;
#X connect 21 0 10 0;
#X connect 22 0 11 0;
#X connect 23 0 26 0;
#X connect 24 0 25 0;
#X connect 25 0 15 0;
#X connect 25 0 15 1;
#X connect 26 0 24 0;
#X connect 27 0 16 1;
#X connect 28 0 16 0;
#X restore 502 250 pd Audio;
#N canvas 123 253 450 300 Start/Stop 0;
#X obj 915 403 line;
#X msg 885 326 0.5 1;
#X msg 984 327 0 1;
#X obj 835 421 hsl 128 15 0 1 0 0 empty empty empty -2 -8 0 10 -262144
-1 -1 0 1;
#X obj 883 291 r bang 1;
#X obj 883 308 bng 15 250 50 0 empty empty empty 17 7 0 10 -262144
-1 -1;
#X obj 1019 308 bng 15 250 50 0 empty empty empty 17 7 0 10 -262144
-1 -1;
#X obj 974 288 r bangor;
#X obj 794 377 outlet;
#X connect 0 0 3 0;
#X connect 1 0 0 0;
#X connect 2 0 0 0;
#X connect 3 0 8 0;
#X connect 4 0 5 0;
#X connect 5 0 1 0;
#X connect 6 0 2 0;
#X connect 7 0 6 0;
#X restore 502 284 pd Start/Stop;
#N canvas 50 100 450 300 Metro 0;
#X obj 743 63 bng 15 250 50 0 empty empty empty 17 7 0 10 -262144 -1
-1;
#X floatatom 701 -135 5 0 0 0 - - -;
#X obj 673 -98 sel 0;
#X obj 713 -98 sel 1;
#X obj 750 -102 sel 2;
#X obj 708 -228 tgl 15 0 empty empty empty 17 7 0 10 -262144 -1 -1
0 1;
#X obj 918 -22 metro 2000;
#X obj 701 -161 random 4;
#X obj 792 -102 sel 3;
#X obj 834 -106 sel 4;
#X obj 648 -189 moses 1;
#X obj 625 -159 bng 15 250 50 0 empty empty empty 17 7 0 10 -262144
-1 -1;
#X obj 661 -155 bng 15 250 50 0 empty empty empty 17 7 0 10 -262144
-1 -1;
#X obj 632 -32 metro 10000;
#X obj 700 -31 metro 5000;
#X obj 766 -27 metro 15000;
#X obj 842 -25 metro 2500;
#N canvas 0 23 454 304 gemwin 0;
#X obj 132 136 gemwin;
#X obj 67 89 outlet;
#X obj 67 10 inlet;
#X obj 67 41 route create;
#X msg 67 70 set destroy;
#X msg 182 68 set create;
#X msg 132 112 create \, 1;
#X msg 238 112 destroy;
#N canvas 87 154 247 179 Gem.init 0;
#X obj 59 46 loadbang;
#X msg 118 81 reset;
#X obj 118 113 outlet;
#X obj 59 65 t b b;
#X connect 0 0 3 0;
#X connect 1 0 2 0;
#X connect 3 1 1 0;
#X restore 289 80 pd Gem.init;
#X connect 2 0 3 0;
#X connect 3 0 4 0;
#X connect 3 0 6 0;
#X connect 3 1 5 0;
#X connect 3 1 7 0;
#X connect 4 0 1 0;
#X connect 5 0 1 0;
#X connect 6 0 0 0;
#X connect 7 0 0 0;
#X connect 8 0 0 0;
#X restore 431 -168 pd gemwin;
#X msg 501 -195 create;
#X obj 567 -64 s bang 1;
#X obj 873 -212 bng 15 250 50 0 empty empty empty 17 7 0 10 -262144
-1 -1;
#X obj 894 -187 s bangor;
#X obj 841 61 outlet;
#X obj 636 -225 inlet;
#X obj 671 -64 bng 15 250 50 0 empty empty empty 17 7 0 10 -262144
-1 -1;
#X obj 710 -60 bng 15 250 50 0 empty empty empty 17 7 0 10 -262144
-1 -1;
#X obj 764 -58 bng 15 250 50 0 empty empty empty 17 7 0 10 -262144
-1 -1;
#X obj 833 -56 bng 15 250 50 0 empty empty empty 17 7 0 10 -262144
-1 -1;
#X obj 906 -49 bng 15 250 50 0 empty empty empty 17 7 0 10 -262144
-1 -1;
#X obj 753 -172 metro 1000;
#X obj 856 -146 tgl 15 0 empty empty empty 17 7 0 10 -262144 -1 -1
0 1;
#X obj 882 -142 tgl 15 0 empty empty empty 17 7 0 10 -262144 -1 -1
0 1;
#X obj 909 -138 tgl 15 0 empty empty empty 17 7 0 10 -262144 -1 -1
0 1;
#X obj 932 -135 tgl 15 0 empty empty empty 17 7 0 10 -262144 -1 -1
0 1;
#X obj 958 -134 tgl 15 0 empty empty empty 17 7 0 10 -262144 -1 -1
0 1;
#X connect 0 0 22 0;
#X connect 1 0 2 0;
#X connect 1 0 3 0;
#X connect 1 0 4 0;
#X connect 1 0 8 0;
#X connect 1 0 9 0;
#X connect 2 0 24 0;
#X connect 3 0 25 0;
#X connect 4 0 26 0;
#X connect 5 0 10 0;
#X connect 5 0 29 0;
#X connect 5 0 30 0;
#X connect 5 0 31 0;
#X connect 5 0 32 0;
#X connect 5 0 33 0;
#X connect 5 0 34 0;
#X connect 6 0 0 0;
#X connect 7 0 1 0;
#X connect 8 0 27 0;
#X connect 9 0 28 0;
#X connect 10 0 11 0;
#X connect 10 1 12 0;
#X connect 11 0 18 0;
#X connect 11 0 20 0;
#X connect 12 0 18 0;
#X connect 12 0 19 0;
#X connect 13 0 0 0;
#X connect 14 0 0 0;
#X connect 15 0 0 0;
#X connect 16 0 0 0;
#X connect 17 0 18 0;
#X connect 18 0 17 0;
#X connect 20 0 21 0;
#X connect 23 0 5 0;
#X connect 24 0 13 0;
#X connect 25 0 14 0;
#X connect 26 0 15 0;
#X connect 27 0 16 0;
#X connect 28 0 6 0;
#X connect 29 0 7 0;
#X connect 30 0 13 0;
#X connect 31 0 14 0;
#X connect 32 0 15 0;
#X connect 33 0 16 0;
#X connect 34 0 6 0;
#X restore 238 162 pd Metro system;
#X obj 178 212 tgl 15 0 empty empty empty 17 7 0 10 -262144 -1 -1 0
1;
#X floatatom 423 250 5 0 0 0 - - -;
#X floatatom 369 212 5 0 0 0 - - -;
#N canvas 439 90 450 300 Airfrost 0;
#X msg 418 126 draw line;
#X msg 418 147 draw fill;
#X msg 418 169 draw point;
#X obj 471 65 gemhead;
#X floatatom 270 60 5 0 0 0 - - -;
#X obj 264 179 cuboid;
#X floatatom 366 59 5 0 0 0 - - -;
#X floatatom 385 224 5 0 0 0 - - -;
#X obj 475 96 inlet;
#X obj 476 256 inlet;
#X connect 0 0 5 0;
#X connect 1 0 5 0;
#X connect 2 0 5 0;
#X connect 3 0 5 0;
#X connect 4 0 5 1;
#X connect 6 0 5 2;
#X connect 7 0 5 3;
#X connect 8 0 1 0;
#X connect 9 0 7 0;
#X connect 9 0 6 0;
#X connect 9 0 4 0;
#X restore 227 250 pd Airfrost cube;
#X obj 369 212 * 1000;
#N canvas 380 106 450 300 data 0;
#X msg -365 -695 2 10.4 4.4 1 66 74.9;
#X msg -368 -470 12 4.6 0.2 15 99.8 40.9;
#X msg -367 -495 11 11.3 5.2 5 98.2 78.1;
#X msg -366 -519 10 17.3 10.3 0 33.2 139.9;
#X msg -365 -542 9 18.3 10.3 0 98.8 135.3;
#X msg -365 -563 8 26.4 13.9 0 4.4 285.1;
#X msg -366 -585 7 25.1 13.9 0 37.8 247.6;
#X msg -368 -610 6 20 10.4 0 6.6 194.4;
#X msg -369 -634 5 17.8 7.8 0 54.1 233.5;
#X msg -370 -657 4 14.3 5.4 3 18.9 190.1;
#X msg -369 -675 3 10.5 2 6 49.3 198.7;
#X msg -364 -716 1 8.5 2.2 7 116.3 61.8;
#X obj -161 -607 unpack f f f f f f;
#X obj -164 -581 outlet;
#X obj -140 -557 outlet;
#X obj -113 -537 outlet;
#X obj -81 -514 outlet;
#X obj -70 -490 outlet;
#X obj -49 -464 outlet;
#X obj -387 -737 sel 0;
#X obj -348 -735 sel 1;
#X obj -310 -734 sel 2;
#X obj -253 -734 sel 3;
#X obj -214 -731 sel 4;
#X obj -158 -728 sel 5;
#X obj -114 -731 sel 6;
#X obj -73 -731 sel 7;
#X obj -33 -728 sel 8;
#X obj 3 -729 sel 9;
#X obj 40 -730 sel 10;
#X obj 78 -728 sel 11;
#X obj -199 -786 inlet;
#X connect 0 0 12 0;
#X connect 1 0 12 0;
#X connect 2 0 12 0;
#X connect 3 0 12 0;
#X connect 4 0 12 0;
#X connect 5 0 12 0;
#X connect 6 0 12 0;
#X connect 7 0 12 0;
#X connect 8 0 12 0;
#X connect 9 0 12 0;
#X connect 10 0 12 0;
#X connect 11 0 12 0;
#X connect 12 0 13 0;
#X connect 12 1 14 0;
#X connect 12 2 15 0;
#X connect 12 3 16 0;
#X connect 12 4 17 0;
#X connect 12 5 18 0;
#X connect 19 0 11 0;
#X connect 20 0 0 0;
#X connect 21 0 10 0;
#X connect 22 0 9 0;
#X connect 23 0 8 0;
#X connect 24 0 7 0;
#X connect 25 0 6 0;
#X connect 26 0 5 0;
#X connect 27 0 4 0;
#X connect 28 0 3 0;
#X connect 29 0 2 0;
#X connect 30 0 1 0;
#X connect 31 0 19 0;
#X connect 31 0 20 0;
#X connect 31 0 21 0;
#X connect 31 0 22 0;
#X connect 31 0 23 0;
#X connect 31 0 24 0;
#X connect 31 0 25 0;
#X connect 31 0 26 0;
#X connect 31 0 27 0;
#X connect 31 0 28 0;
#X connect 31 0 29 0;
#X connect 31 0 30 0;
#X coords 0 300 1 299 85 60 0;
#X restore 392 162 pd data;
#X obj 238 128 r start/stop;
#X connect 0 0 11 0;
#X connect 4 0 3 2;
#X connect 5 0 0 0;
#X connect 6 0 5 0;
#X connect 6 0 9 0;
#X connect 7 0 3 4;
#X connect 8 0 10 0;
#X connect 10 0 9 1;
#X connect 11 0 2 0;
#X connect 11 1 3 0;
#X connect 11 2 3 1;
#X connect 11 3 8 0;
#X connect 11 4 1 0;
#X connect 11 5 7 0;
#X connect 12 0 6 0;
#X restore 197 138 pd patch;
#X connect 3 0 4 0;
#X coords 0 684 1 683 85 60 0;
